<!DOCTYPE svg PUBLIC "-//W3C//DTD SVG 1.1//EN" "http://www.w3.org/Graphics/SVG/1.1/DTD/svg11.dtd">
<!-- Uploaded to: SVG Repo, www.svgrepo.com, Transformed by: SVG Repo Mixer Tools -->
<svg width="256px" height="256px" viewBox="-450.56 -450.56 1925.12 1925.12" class="icon" version="1.1" xmlns="http://www.w3.org/2000/svg" fill="#000000">
<g id="SVGRepo_bgCarrier" stroke-width="0" transform="translate(0,0), scale(1)">
<path transform="translate(-450.56, -450.56), scale(60.16)" d="M16,30.741774990566466C20.07444811092842,30.592214072493846,21.76186062919834,25.808432502112613,24.377705072008887,22.68099685483223C27.136134482681385,19.38309032481898,32.01127292200104,16.751273423506404,31.239645961095817,12.521650257363676C30.457844795578737,8.236257848175168,25.308940629231408,6.64228180064943,21.19199204755529,5.218717422418033C17.794559807185195,4.043948435413411,14.06378098975825,3.7156783507467663,10.945551304011502,5.504329134902738C8.054139454744696,7.162874717721287,7.021513508161068,10.531694347725916,6.268684177426062,13.778890666267882C5.511295485591076,17.045752983429086,5.145097518660924,20.416881241147166,6.813845052698786,23.325714116623157C8.874144478230935,26.917070256524568,11.862415490005347,30.89365345878356,16,30.741774990566466" fill="#7ed0ec" strokewidth="0"/>
</g>
<g id="SVGRepo_tracerCarrier" stroke-linecap="round" stroke-linejoin="round" stroke="#CCCCCC" stroke-width="59.391999999999996"/>
<g id="SVGRepo_iconCarrier">
<path d="M379.733333 386.133333l-157.866666 155.733334-89.6-87.466667L85.333333 501.333333l136.533334 136.533334 204.8-204.8zM379.733333 108.8l-157.866666 155.733333-89.6-87.466666L85.333333 224l136.533334 136.533333L426.666667 155.733333zM379.733333 663.466667l-157.866666 155.733333-89.6-87.466667L85.333333 778.666667l136.533334 136.533333 204.8-204.8z" fill="#fff3F51B5"/>
<path d="M512 469.333333h426.666667v85.333334H512zM512 192h426.666667v85.333333H512zM512 746.666667h426.666667v85.333333H512z" fill="#fff"/>
</g>
</svg>